<svg width="1200" height="720" viewBox="0 0 1200 720" fill="none" xmlns="http://www.w3.org/2000/svg">
  <rect width="1200" height="720" rx="28" fill="#FFFFFF" />
  <rect x="40" y="40" width="1120" height="640" rx="24" fill="#F5F5F5" stroke="#E5E5E5" stroke-width="2" />
  <rect x="80" y="90" width="240" height="36" rx="10" fill="#FFFFFF" stroke="#E5E5E5" />
  <rect x="340" y="90" width="200" height="36" rx="10" fill="#FFFFFF" stroke="#E5E5E5" />
  <rect x="560" y="90" width="160" height="36" rx="10" fill="#FFFFFF" stroke="#E5E5E5" />
  <rect x="80" y="150" width="360" height="140" rx="18" fill="#FFFFFF" stroke="#E5E5E5" />
  <rect x="470" y="150" width="280" height="140" rx="18" fill="#FFFFFF" stroke="#E5E5E5" />
  <rect x="780" y="150" width="340" height="140" rx="18" fill="#FFFFFF" stroke="#E5E5E5" />
  <rect x="110" y="180" width="300" height="20" rx="10" fill="rgba(59, 130, 246, 0.15)" />
  <rect x="110" y="215" width="260" height="20" rx="10" fill="rgba(34, 197, 94, 0.15)" />
  <rect x="110" y="250" width="220" height="20" rx="10" fill="rgba(168, 85, 247, 0.15)" />
  <rect x="500" y="180" width="220" height="20" rx="10" fill="rgba(234, 179, 8, 0.15)" />
  <rect x="500" y="215" width="180" height="20" rx="10" fill="rgba(249, 115, 22, 0.15)" />
  <rect x="500" y="250" width="200" height="20" rx="10" fill="rgba(239, 68, 68, 0.15)" />
  <rect x="80" y="330" width="480" height="300" rx="20" fill="#FFFFFF" stroke="#E5E5E5" />
  <rect x="600" y="330" width="520" height="300" rx="20" fill="#FFFFFF" stroke="#E5E5E5" />
  <rect x="110" y="360" width="420" height="28" rx="12" fill="#F5F5F5" />
  <rect x="110" y="405" width="420" height="28" rx="12" fill="#F5F5F5" />
  <rect x="110" y="450" width="420" height="28" rx="12" fill="#F5F5F5" />
  <rect x="110" y="495" width="420" height="28" rx="12" fill="#F5F5F5" />
  <rect x="110" y="540" width="420" height="28" rx="12" fill="#F5F5F5" />
  <rect x="630" y="360" width="460" height="48" rx="14" fill="rgba(59, 130, 246, 0.15)" />
  <rect x="630" y="420" width="460" height="48" rx="14" fill="rgba(34, 197, 94, 0.15)" />
  <rect x="630" y="480" width="460" height="48" rx="14" fill="rgba(168, 85, 247, 0.15)" />
  <rect x="630" y="540" width="460" height="48" rx="14" fill="rgba(249, 115, 22, 0.15)" />
</svg>
