<svg width="1400" height="820" viewBox="0 0 1400 820" fill="none" xmlns="http://www.w3.org/2000/svg">
  <rect width="1400" height="820" rx="28" fill="#FFFFFF" />
  <rect x="36" y="36" width="1328" height="748" rx="24" fill="#F5F5F5" stroke="#E5E5E5" stroke-width="2" />
  <rect x="90" y="90" width="310" height="54" rx="16" fill="#FFFFFF" stroke="#E5E5E5" />
  <rect x="430" y="90" width="230" height="54" rx="16" fill="#FFFFFF" stroke="#E5E5E5" />
  <rect x="690" y="90" width="230" height="54" rx="16" fill="#FFFFFF" stroke="#E5E5E5" />
  <rect x="950" y="90" width="320" height="54" rx="16" fill="#FFFFFF" stroke="#E5E5E5" />
  <rect x="90" y="180" width="420" height="260" rx="20" fill="#FFFFFF" stroke="#E5E5E5" />
  <rect x="540" y="180" width="770" height="260" rx="20" fill="#FFFFFF" stroke="#E5E5E5" />
  <rect x="130" y="220" width="340" height="26" rx="12" fill="rgba(59, 130, 246, 0.15)" />
  <rect x="130" y="260" width="280" height="26" rx="12" fill="rgba(34, 197, 94, 0.15)" />
  <rect x="130" y="300" width="300" height="26" rx="12" fill="rgba(168, 85, 247, 0.15)" />
  <rect x="130" y="340" width="240" height="26" rx="12" fill="rgba(234, 179, 8, 0.15)" />
  <rect x="580" y="220" width="690" height="40" rx="14" fill="rgba(59, 130, 246, 0.15)" />
  <rect x="580" y="270" width="690" height="40" rx="14" fill="rgba(34, 197, 94, 0.15)" />
  <rect x="580" y="320" width="690" height="40" rx="14" fill="rgba(168, 85, 247, 0.15)" />
  <rect x="580" y="370" width="690" height="40" rx="14" fill="rgba(239, 68, 68, 0.15)" />
  <rect x="90" y="470" width="610" height="270" rx="20" fill="#FFFFFF" stroke="#E5E5E5" />
  <rect x="730" y="470" width="580" height="270" rx="20" fill="#FFFFFF" stroke="#E5E5E5" />
  <rect x="120" y="510" width="550" height="36" rx="14" fill="#F5F5F5" />
  <rect x="120" y="560" width="550" height="36" rx="14" fill="#F5F5F5" />
  <rect x="120" y="610" width="550" height="36" rx="14" fill="#F5F5F5" />
  <rect x="120" y="660" width="550" height="36" rx="14" fill="#F5F5F5" />
  <rect x="760" y="520" width="520" height="50" rx="16" fill="rgba(249, 115, 22, 0.15)" />
  <rect x="760" y="590" width="520" height="50" rx="16" fill="rgba(234, 179, 8, 0.15)" />
  <rect x="760" y="660" width="520" height="50" rx="16" fill="rgba(168, 85, 247, 0.15)" />
</svg>
